<svg version="1.1" id="Layer_1" xmlns="http://www.w3.org/2000/svg" xmlns:xlink="http://www.w3.org/1999/xlink" x="0px" y="0px" viewBox="0 0 166.6 166.6" style="enable-background:new 0 0 166.6 166.6;" xml:space="preserve">
 <style type="text/css">
  .st0{fill:#E83189;}
	.st1{fill:#FFFFFF;}
 </style>
 <path class="st0" d="M129.6,0H37c-9.8,0-19.2,3.9-26.2,10.8C3.9,17.8,0,27.2,0,37v92.6c0,9.8,3.9,19.2,10.8,26.2
	c6.9,6.9,16.4,10.8,26.2,10.8h92.6c9.8,0,19.2-3.9,26.2-10.8s10.8-16.4,10.8-26.2V37c0-9.8-3.9-19.2-10.8-26.2
	C148.8,3.9,139.4,0,129.6,0z M149.2,84.6c-0.3,0.1-0.7,0.2-1.1,0.2c-0.5,0-0.9-0.1-1.3-0.3c-0.4-0.2-0.8-0.6-1-1
	c-1.8-1.3-8.9-6.2-15.2-7.4L89.1,90.2l0.8,1.9l0.7,1.7l-1.7,0.8l-2.3,1c-0.4,0.2-0.9,0.3-1.4,0.3c-0.6,0-1.3-0.2-1.8-0.5l-2.1,1.1
	c-2.3,1.2-4.8,5-6.7,10.3c-0.2,0.6-0.4,1.2-0.6,1.8v0.1c-0.3,0.7-0.6,1.5-1,2.2c-3,6.6-8.4,11.9-15.1,14.7
	c-3.4,1.5-7.1,2.2-10.9,2.2c-3.7,0-7.5-0.7-10.9-2.1c-3.5-1.4-6.6-3.5-9.3-6.2c-2.7-2.6-4.8-5.8-6.2-9.2c-2.9-7-2.8-14.9,0.1-21.9
	c2.9-7,8.4-12.6,15.4-15.5c6.6-2.8,14.1-3,20.9-0.5c0.8,0.3,1.6,0.6,2.3,0.9l0.8,0.3v0.1c0.3,0.1,0.6,0.3,0.9,0.5
	c2.3,1,6.5,2.8,9.9,2.8c0.7,0,1.4-0.1,2-0.3l2.3-0.7c0.2-0.5,0.4-1,0.8-1.4c0.4-0.4,0.8-0.8,1.3-1l2.3-1l1.7-0.7l0.7,1.7l0.8,1.9
	L122,55.7c3.6-5.4,5.1-14,5.5-16.2c-0.1-0.4-0.1-0.8,0-1.2c0.1-0.4,0.3-0.8,0.5-1.1c0.3-0.3,0.6-0.6,1-0.8c0.4-0.2,0.8-0.3,1.2-0.3
	c0.5,0,1.1,0.2,1.5,0.5c0.5,0.3,0.8,0.7,1,1.3L150.6,81c0.3,0.7,0.3,1.4,0,2.1C150.4,83.8,149.8,84.3,149.2,84.6z">
 </path>
 <path class="st1" d="M149.2,84.6c-0.3,0.1-0.7,0.2-1.1,0.2c-0.5,0-0.9-0.1-1.3-0.3c-0.4-0.2-0.8-0.6-1-1c-1.8-1.3-8.9-6.2-15.2-7.4
	L89.1,90.2l0.8,1.9l0.7,1.7l-1.7,0.8l-2.3,1c-0.4,0.2-0.9,0.3-1.4,0.3c-0.6,0-1.3-0.2-1.8-0.5l-2.1,1.1c-2.3,1.2-4.8,5-6.7,10.3
	c-0.2,0.6-0.4,1.2-0.6,1.8v0.1c-0.3,0.7-0.6,1.5-1,2.2c-3,6.6-8.4,11.9-15.1,14.7c-3.4,1.5-7.1,2.2-10.9,2.2
	c-3.7,0-7.5-0.7-10.9-2.1c-3.5-1.4-6.6-3.5-9.3-6.2c-2.7-2.6-4.8-5.8-6.2-9.2c-2.9-7-2.8-14.9,0.1-21.9c2.9-7,8.4-12.6,15.4-15.5
	c6.6-2.8,14.1-3,20.9-0.5c0.8,0.3,1.6,0.6,2.3,0.9l0.8,0.3v0.1c0.3,0.1,0.6,0.3,0.9,0.5c2.3,1,6.5,2.8,9.9,2.8c0.7,0,1.4-0.1,2-0.3
	l2.3-0.7c0.2-0.5,0.4-1,0.8-1.4c0.4-0.4,0.8-0.8,1.3-1l2.3-1l1.7-0.7l0.7,1.7l0.8,1.9L122,55.7c3.6-5.4,5.1-14,5.5-16.2
	c-0.1-0.4-0.1-0.8,0-1.2c0.1-0.4,0.3-0.8,0.5-1.1c0.3-0.3,0.6-0.6,1-0.8c0.4-0.2,0.8-0.3,1.2-0.3c0.6,0,1.1,0.2,1.5,0.5
	c0.5,0.3,0.8,0.7,1,1.3L150.6,81c0.3,0.7,0.3,1.4,0,2.1C150.4,83.8,149.8,84.3,149.2,84.6z">
 </path>
</svg>